<?xml version="1.0" encoding="utf-8"?>
<!-- Generator: Adobe Illustrator 27.0.1, SVG Export Plug-In . SVG Version: 6.00 Build 0)  -->
<svg version="1.1" id="Layer_1" xmlns="http://www.w3.org/2000/svg" xmlns:xlink="http://www.w3.org/1999/xlink" x="0px" y="0px"
	 viewBox="0 0 500 150" style="enable-background:new 0 0 500 150;" xml:space="preserve">
<g>
	<g>
		<path d="M6.52,106.13l20-53.25h6.37l20,53.25h-9.41L29.7,66.47l-13.77,39.66H6.52z M15.93,96.02v-8.39h28.02v8.39H15.93z"/>
		<path d="M71.46,106.13V52.85h8.75v53.28H71.46z M75.08,84.16v-8.39h18.35c1.88,0,3.38-0.67,4.5-2c1.12-1.33,1.7-3.09,1.72-5.29
			c0-2.17-0.57-3.92-1.7-5.25c-1.13-1.33-2.64-2-4.52-2H75.08v-8.39h18.6c3.03,0,5.67,0.65,7.93,1.94c2.26,1.29,4.02,3.11,5.27,5.46
			s1.89,5.09,1.89,8.24s-0.64,5.9-1.9,8.24c-1.27,2.34-3.03,4.17-5.27,5.48c-2.25,1.31-4.88,1.96-7.91,1.96H75.08z M100.5,106.13
			L87.94,82.51l9.08-1.69l13.99,25.31H100.5z"/>
		<path d="M149.39,106.68c-3.88,0-7.24-0.8-10.07-2.4c-2.83-1.6-5.01-3.89-6.54-6.87c-1.53-2.98-2.29-6.51-2.29-10.58V72.22
			c0-4.1,0.76-7.64,2.29-10.6c1.53-2.97,3.7-5.26,6.54-6.87c2.83-1.61,6.19-2.42,10.07-2.42c3.22,0,6.13,0.69,8.72,2.07
			c2.59,1.38,4.74,3.35,6.46,5.9c1.72,2.55,2.9,5.6,3.53,9.14h-9.01c-0.44-1.76-1.14-3.27-2.09-4.52s-2.08-2.23-3.39-2.91
			c-1.31-0.68-2.72-1.03-4.23-1.03c-3.05,0-5.46,1.01-7.23,3.02c-1.77,2.01-2.66,4.76-2.66,8.22v14.61c0,3.47,0.88,6.2,2.66,8.2
			c1.77,2,4.18,3,7.23,3c2.27,0,4.3-0.73,6.08-2.2s2.99-3.55,3.63-6.26h9.01c-0.66,3.54-1.85,6.59-3.57,9.14
			c-1.72,2.55-3.87,4.52-6.45,5.9S152.62,106.68,149.39,106.68z"/>
		<path d="M189.25,106.13V52.88H198v53.25H189.25z M193.9,84.01v-8.39h30.29v8.39H193.9z M218.95,106.13V52.88h8.75v53.25H218.95z"
			/>
		<path d="M259.97,52.88v53.25h-8.94V52.88H259.97z"/>
		<path d="M283.3,106.13V52.88h8.72v53.25H283.3z M287.7,106.13v-8.28h15.71c3.12,0,5.41-0.66,6.87-1.98
			c1.45-1.32,2.18-3.09,2.18-5.31v-0.11c0-2.34-0.67-4.19-2-5.53c-1.33-1.34-3.38-2.01-6.13-2.01H287.7v-8.2h16.63
			c2.42,0,4.26-0.59,5.53-1.76s1.9-2.87,1.9-5.09c0-2.2-0.67-3.86-2.01-5c-1.34-1.14-3.32-1.7-5.93-1.7H287.7v-8.28h16.96
			c5.22,0,9.19,1.28,11.88,3.85s4.05,6.09,4.05,10.58c0,2.88-0.84,5.38-2.53,7.49c-1.68,2.11-4.2,3.46-7.54,4.05
			c3.42,0.49,6.07,1.89,7.95,4.21c1.88,2.32,2.82,5.14,2.82,8.46v0.11c0,4.47-1.42,8-4.25,10.6c-2.83,2.6-6.75,3.9-11.75,3.9H287.7z
			"/>
		<path d="M337.84,106.13l20-53.25h6.37l20,53.25h-9.41l-13.77-39.66l-13.77,39.66H337.84z M347.25,96.02v-8.39h28.02v8.39H347.25z"
			/>
		<path d="M402.77,106.13V52.88h8.75v53.25H402.77z M406.88,106.13v-8.39h30.83v8.39H406.88z"/>
		<path d="M457.02,106.13V52.88h8.75v53.25H457.02z M462.07,106.13v-8.39h12.41c3.61,0,6.42-0.91,8.41-2.73
			c1.99-1.82,2.98-4.38,2.98-7.67V71.67c0-3.32-1-5.88-2.98-7.69c-1.99-1.81-4.79-2.71-8.41-2.71h-12.41v-8.39h12.2
			c6.57,0,11.64,1.67,15.23,5c3.59,3.33,5.38,8.03,5.38,14.08v15.09c0,3.91-0.79,7.29-2.36,10.14c-1.57,2.86-3.9,5.06-6.98,6.61
			s-6.85,2.33-11.32,2.33H462.07z"/>
	</g>
</g>
</svg>
