<?xml version="1.0" encoding="utf-8"?>
<!-- Generator: Adobe Illustrator 27.0.1, SVG Export Plug-In . SVG Version: 6.00 Build 0)  -->
<svg version="1.1" id="Layer_1" xmlns="http://www.w3.org/2000/svg" xmlns:xlink="http://www.w3.org/1999/xlink" x="0px" y="0px"
	 viewBox="0 0 500 500" style="enable-background:new 0 0 500 500;" xml:space="preserve">
<style type="text/css">
	.st0{fill:#D8B476;}
	.st1{fill:none;stroke:#000000;stroke-width:25;stroke-miterlimit:10;}
</style>
<g>
	<g>
		<path class="st0" d="M248.17,352.05V123.46h32.05v228.59H248.17z M262.15,255.43v-30.48h77.92c9.32,0,16.81-3.25,22.47-9.74
			c5.66-6.49,8.48-15.08,8.48-25.77s-2.83-19.27-8.48-25.77c-5.66-6.49-13.14-9.74-22.47-9.74h-77.92v-30.48h76.67
			c13.3,0,24.93,2.75,34.88,8.25c9.95,5.5,17.67,13.17,23.17,23.02c5.5,9.85,8.25,21.42,8.25,34.72c0,13.2-2.78,24.74-8.33,34.64
			c-5.55,9.9-13.28,17.6-23.17,23.09c-9.9,5.5-21.5,8.25-34.8,8.25H262.15z M376.68,352.05l-52.31-103.69l31.89-7.23l58.44,110.92
			H376.68z"/>
	</g>
</g>
<g>
	<g>
		<path d="M84.16,352l84.21-228.43h27.34L279.91,352h-34.56l-63.31-184.28L118.73,352H84.16z M122.97,301.88V271.4h120.19v30.48
			H122.97z"/>
	</g>
</g>
<rect x="56.5" y="42.5" class="st1" width="388" height="388"/>
<g>
	<g>
		<path d="M71.63,489.94l14.39-39.05h4.67l14.39,39.05h-5.91l-10.82-31.5l-10.82,31.5H71.63z M78.26,481.37v-5.21h20.54v5.21H78.26z
			"/>
		<path d="M119.25,489.94v-39.07h5.48v39.07H119.25z M121.64,473.42v-5.21h13.32c1.59,0,2.87-0.55,3.84-1.66
			c0.97-1.11,1.45-2.58,1.45-4.4s-0.48-3.29-1.45-4.4c-0.97-1.11-2.25-1.67-3.84-1.67h-13.32v-5.21h13.11
			c2.27,0,4.26,0.47,5.96,1.41c1.7,0.94,3.02,2.25,3.96,3.93c0.94,1.68,1.41,3.66,1.41,5.94c0,2.26-0.47,4.23-1.42,5.92
			c-0.95,1.69-2.27,3.01-3.96,3.95c-1.69,0.94-3.68,1.41-5.95,1.41H121.64z M141.22,489.94l-8.94-17.72l5.45-1.24l9.99,18.96H141.22
			z"/>
		<path d="M176.13,490.34c-2.72,0-5.1-0.6-7.14-1.81c-2.04-1.21-3.63-2.9-4.75-5.09s-1.69-4.74-1.69-7.65v-10.72
			c0-2.94,0.56-5.5,1.69-7.68s2.71-3.88,4.75-5.09c2.04-1.21,4.42-1.81,7.14-1.81c2.26,0,4.32,0.48,6.19,1.45
			c1.87,0.97,3.44,2.32,4.7,4.05c1.26,1.74,2.12,3.77,2.57,6.1h-5.61c-0.34-1.25-0.91-2.35-1.71-3.29c-0.8-0.94-1.73-1.67-2.81-2.19
			c-1.07-0.52-2.18-0.78-3.33-0.78c-2.4,0-4.33,0.85-5.79,2.54c-1.46,1.69-2.19,3.92-2.19,6.7v10.72c0,2.77,0.73,5,2.19,6.69
			c1.46,1.68,3.39,2.52,5.79,2.52c1.7,0,3.3-0.54,4.81-1.61s2.52-2.62,3.04-4.65h5.61c-0.45,2.33-1.31,4.36-2.58,6.1
			c-1.27,1.74-2.84,3.09-4.7,4.06S178.39,490.34,176.13,490.34z"/>
		<path d="M205.62,489.94v-39.05h5.48v39.05H205.62z M209.04,473.31v-5.21h21.67v5.21H209.04z M227.81,489.94v-39.05h5.48v39.05
			H227.81z"/>
		<path d="M256.68,450.89v39.05h-5.48v-39.05H256.68z"/>
		<path d="M274.6,489.94v-39.05h5.45v39.05H274.6z M277.82,489.94v-5.08h10.58c2.9,0,4.96-0.55,6.16-1.66
			c1.21-1.11,1.81-2.57,1.81-4.38v-0.08c0-1.93-0.51-3.48-1.54-4.63c-1.03-1.16-2.73-1.73-5.09-1.73h-11.92v-4.94h11.92
			c2.02,0,3.55-0.48,4.58-1.44c1.03-0.96,1.54-2.36,1.54-4.2c0-1.95-0.57-3.41-1.72-4.38s-2.86-1.45-5.16-1.45h-11.17v-5.08h12.17
			c3.85,0,6.71,0.96,8.59,2.87c1.88,1.92,2.82,4.48,2.82,7.71c0,1.95-0.57,3.74-1.72,5.36c-1.15,1.62-2.95,2.65-5.4,3.1
			c2.42,0.36,4.29,1.42,5.63,3.2c1.33,1.77,2,3.8,2,6.1v0.08c0,3.19-1.03,5.76-3.09,7.71c-2.06,1.95-4.85,2.93-8.38,2.93H277.82z"/>
		<path d="M314.59,489.94l14.39-39.05h4.67l14.39,39.05h-5.91l-10.82-31.5l-10.82,31.5H314.59z M321.23,481.37v-5.21h20.54v5.21
			H321.23z"/>
		<path d="M362.21,489.94v-39.05h5.48v39.05H362.21z M364.95,489.94v-5.21h22.34v5.21H364.95z"/>
		<path d="M401.99,489.94v-39.05h5.48v39.05H401.99z M405.7,489.94v-5.21h8.83c2.88,0,5.12-0.75,6.7-2.24
			c1.58-1.5,2.38-3.6,2.38-6.33v-11.49c0-2.72-0.79-4.83-2.38-6.32c-1.58-1.49-3.82-2.24-6.7-2.24h-8.83v-5.21h8.67
			c4.73,0,8.38,1.22,10.97,3.67c2.59,2.44,3.88,5.89,3.88,10.33v11.06c0,2.96-0.58,5.47-1.75,7.56c-1.16,2.09-2.86,3.68-5.08,4.78
			c-2.22,1.1-4.91,1.65-8.06,1.65H405.7z"/>
	</g>
</g>
</svg>
